<svg width="147" height="30" viewBox="0 0 147 30" fill="none" xmlns="http://www.w3.org/2000/svg">
<g id="Group 27">
<g id="#3a3a3cfe">
<path id="Vector" d="M0 0C4.44573 4.43736 9.38469 8.33407 14.7972 11.5253C18.3288 13.8791 22.564 15.3099 25.5037 18.4615C27.5293 20.6176 25.9509 23.6242 25.1618 25.9451C26.99 24.3297 28.9169 22.5363 31.4292 22.1604C34.7766 21.9429 37.7492 24.1582 41.044 24.211C43.2472 23.5253 42.3067 20.8879 42.0108 19.2791C43.5892 20.0374 44.26 21.4945 44.0956 23.1956C42.3462 24.9758 39.9918 26.4857 37.3809 26.0571C34.0401 25.6549 30.4361 23.0637 27.2334 25.3714C25.1552 26.2681 25.3656 29.1626 23.2677 30C23.7018 27.3956 24.8855 24.9429 25.0039 22.2923C24.5238 20.9473 23.3335 20.0242 22.3075 19.1011C18.6905 16.2 14.3105 14.4989 10.5224 11.8484C6.08328 8.88791 2.45304 4.73407 0 0Z" fill="#292929"/>
</g>
<g id="#ffd204ff">
<path id="Vector_2" d="M53.3154 7.31296C54.5057 7.30637 55.7026 7.30637 56.893 7.31296C56.8601 11.7503 56.8996 16.1943 56.8667 20.6316C57.84 20.0316 58.8199 19.425 59.7998 18.8185C57.8729 13.5965 61.9766 7.26021 67.6061 7.29318C71.5915 6.8712 75.0771 9.74593 76.5305 13.2932C73.5382 15.0075 70.5458 16.7218 67.5798 18.4822C66.6723 17.8228 65.0347 16.7218 65.8634 15.4624C67.6982 14.1108 69.7961 13.1745 71.7033 11.9283C70.434 11.3877 69.145 10.6163 67.7114 10.7745C65.1202 10.9064 62.95 13.2734 62.8513 15.8316C62.7921 18.6734 65.3833 21.291 68.2506 21.1064C69.612 21.1459 70.7168 20.2822 71.848 19.6624C72.6832 20.4932 73.5316 21.3108 74.3668 22.1415C70.8747 25.5042 64.9361 25.5174 61.6281 21.8844C59.0567 23.4404 56.4787 25.3855 53.2891 24.7196C53.3811 18.9174 53.3285 13.1152 53.3154 7.31296Z" fill="#292929"/>
<path id="Vector_3" d="M85.04 7.29447C86.2237 7.30766 87.4075 7.32085 88.5913 7.34722C88.5453 7.99337 88.4598 9.27909 88.4137 9.92524C90.2354 7.68348 93.1554 6.71425 95.9373 7.59777C95.0692 8.61315 94.1945 9.60876 93.3658 10.6571C91.1627 11.3033 89.0385 12.8263 88.6242 15.2329C88.3808 18.3846 88.565 21.5494 88.5716 24.7077C87.3878 24.7143 86.1974 24.7208 85.0137 24.7208C85.0794 18.9121 85.04 13.1033 85.04 7.29447Z" fill="#292929"/>
<path id="Vector_4" d="M95.3389 18.8245C93.3791 13.6223 97.496 7.27943 103.106 7.29261C107.111 6.86404 110.603 9.72558 112.063 13.286C109.064 15.0069 106.072 16.7344 103.086 18.4816C102.185 17.8025 101.133 17.0838 101.093 15.8245C102.843 14.1366 105.237 13.3124 107.229 11.941C105.072 10.6289 102.067 10.1673 100.14 12.1454C97.5815 14.2355 97.9827 18.5937 100.784 20.275C102.836 21.7256 105.526 21.086 107.394 19.6553C108.222 20.4926 109.077 21.3102 109.906 22.1476C106.401 25.4904 100.469 25.5234 97.1606 21.8838C95.5362 22.8267 93.925 23.7827 92.3203 24.752C92.3466 23.3607 92.3532 21.9695 92.3729 20.5783C93.3594 19.9915 94.3525 19.4179 95.3389 18.8245Z" fill="#292929"/>
<path id="Vector_5" d="M112.49 7.31397C113.812 7.30737 115.134 7.30737 116.456 7.30737C117.982 10.4326 119.54 13.5447 120.967 16.7228C122.487 13.5777 123.993 10.4261 125.551 7.30078C126.867 7.30737 128.188 7.30737 129.51 7.30737C126.63 13.0964 123.815 18.9184 121.027 24.7535C118.139 18.9579 115.384 13.103 112.49 7.31397Z" fill="#292929"/>
<path id="Vector_6" d="M135.206 7.80076C139.711 6.02054 145.301 8.57879 146.662 13.2931C143.834 15.1524 140.796 16.6557 137.935 18.4557C136.922 17.8557 135.936 17.0909 135.831 15.8118C137.62 14.1568 139.987 13.3129 141.98 11.9282C139.856 10.6227 136.87 10.1744 134.949 12.0931C132.325 14.1766 132.727 18.6667 135.607 20.3216C137.646 21.6931 140.316 21.1194 142.118 19.6227C142.953 20.4469 143.788 21.2777 144.63 22.1019C141.197 25.5304 135.219 25.5107 131.937 21.8843C130.306 22.814 128.695 23.77 127.084 24.7326C127.11 23.348 127.117 21.97 127.13 20.5854C128.116 19.992 129.116 19.4052 130.103 18.8052C128.577 14.5063 130.918 9.36999 135.206 7.80076Z" fill="#292929"/>
</g>
</g>
</svg>